<svg width="40" height="40" viewBox="0 0 40 40" fill="none" xmlns="http://www.w3.org/2000/svg">
<path d="M0 20C0 8.95431 8.95431 0 20 0C31.0457 0 40 8.95431 40 20C40 31.0457 31.0457 40 20 40C8.95431 40 0 31.0457 0 20Z" fill="#FAFAF9"/>
<path d="M26.6667 28.3334H13.3333C12.8731 28.3334 12.5 27.9603 12.5 27.5001V12.5001C12.5 12.0398 12.8731 11.6667 13.3333 11.6667H26.6667C27.1269 11.6667 27.5 12.0398 27.5 12.5001V27.5001C27.5 27.9603 27.1269 28.3334 26.6667 28.3334ZM25.8333 26.6667V13.3334H14.1667V26.6667H25.8333ZM15.8333 15.0001H19.1667V18.3334H15.8333V15.0001ZM15.8333 20.0001H24.1667V21.6667H15.8333V20.0001ZM15.8333 23.3334H24.1667V25.0001H15.8333V23.3334ZM20.8333 15.8334H24.1667V17.5001H20.8333V15.8334Z" fill="#404040"/>
</svg>
