<svg width="20" height="20" viewBox="0 0 20 20" fill="none" xmlns="http://www.w3.org/2000/svg">
<path d="M13.8302 0.863793L19.119 6.15263C19.2818 6.31535 19.2818 6.57917 19.119 6.74189C19.0566 6.8043 18.976 6.84529 18.8888 6.85893L17.6604 7.05098L12.9464 2.33693L13.1231 1.09949C13.1557 0.871685 13.3667 0.713396 13.5945 0.74594C13.6838 0.758689 13.7664 0.800043 13.8302 0.863793ZM3.82908 16.7899C6.93106 14.0137 10.4916 13.1833 14.3649 12.1895L14.7369 8.84159L11.1558 5.26038L7.80782 5.63237C6.81397 9.50575 5.98367 13.0663 3.20741 16.1683L2.0451 15.0059C4.40213 12.2561 5.28601 9.21159 6.46452 4.10469L11.7679 3.51544L16.4819 8.22952L15.8926 13.5328C10.7858 14.7113 7.74125 15.5952 4.99139 17.9522L3.82908 16.7899ZM8.23229 11.765C7.58141 11.1142 7.58141 10.0588 8.23229 9.408C8.88319 8.75708 9.93844 8.75708 10.5893 9.408C11.2402 10.0588 11.2402 11.1142 10.5893 11.765C9.93844 12.4159 8.88319 12.4159 8.23229 11.765Z" fill="#171717"/>
</svg>
