<svg width="20" height="20" viewBox="0 0 20 20" fill="none" xmlns="http://www.w3.org/2000/svg">
<path d="M12.0417 15.8333L10 18.75L7.95835 15.8333H2.50002C2.279 15.8333 2.06705 15.7455 1.91076 15.5892C1.75449 15.433 1.66669 15.221 1.66669 15V3.33333C1.66669 3.11232 1.75449 2.90036 1.91076 2.74408C2.06705 2.5878 2.279 2.5 2.50002 2.5H17.5C17.721 2.5 17.933 2.5878 18.0893 2.74408C18.2455 2.90036 18.3334 3.11232 18.3334 3.33333V15C18.3334 15.221 18.2455 15.433 18.0893 15.5892C17.933 15.7455 17.721 15.8333 17.5 15.8333H12.0417ZM11.1742 14.1667H16.6667V4.16667H3.33335V14.1667H8.82585L10 15.8433L11.1742 14.1667Z" fill="#171717"/>
</svg>
