<svg width="40" height="40" viewBox="0 0 40 40" fill="none" xmlns="http://www.w3.org/2000/svg">
<path d="M0 20C0 8.95431 8.95431 0 20 0C31.0457 0 40 8.95431 40 20C40 31.0457 31.0457 40 20 40C8.95431 40 0 31.0457 0 20Z" fill="#FAFAF9"/>
<path d="M18.3333 15V16.6667H14.1667V25.8333H23.3333V21.6667H25V26.6667C25 27.1269 24.6269 27.5 24.1667 27.5H13.3333C12.8731 27.5 12.5 27.1269 12.5 26.6667V15.8333C12.5 15.3731 12.8731 15 13.3333 15H18.3333ZM27.5 12.5V19.1667H25.8333L25.8333 15.3442L19.3393 21.8393L18.1607 20.6608L24.6541 14.1667H20.8333V12.5H27.5Z" fill="#404040"/>
</svg>
