<svg width="134" height="32" viewBox="0 0 134 32" fill="none" xmlns="http://www.w3.org/2000/svg">
<path d="M40.656 17.088H36.944V22H35.152V10.832H36.944V15.584H40.656V10.832H42.448V22H40.656V17.088ZM50.5058 22C50.0044 22 49.6258 21.872 49.3698 21.616C49.1244 21.36 48.9751 21.024 48.9218 20.608H48.8418C48.6818 21.1093 48.3884 21.4987 47.9618 21.776C47.5457 22.0533 47.0124 22.192 46.3618 22.192C45.5191 22.192 44.8471 21.9733 44.3458 21.536C43.8444 21.088 43.5938 20.4747 43.5938 19.696C43.5938 18.896 43.8871 18.288 44.4737 17.872C45.0711 17.4453 45.9831 17.232 47.2098 17.232H48.7938V16.592C48.7938 15.472 48.2018 14.912 47.0178 14.912C46.4844 14.912 46.0524 15.0187 45.7218 15.232C45.3911 15.4347 45.1137 15.7067 44.8898 16.048L43.8498 15.2C44.0844 14.752 44.4791 14.368 45.0338 14.048C45.5884 13.7173 46.3031 13.552 47.1778 13.552C48.2231 13.552 49.0444 13.8027 49.6418 14.304C50.2391 14.8053 50.5378 15.5307 50.5378 16.48V20.624H51.5778V22H50.5058ZM46.8577 20.912C47.4231 20.912 47.8871 20.784 48.2498 20.528C48.6124 20.272 48.7938 19.9413 48.7938 19.536V18.336H47.2418C45.9831 18.336 45.3537 18.7147 45.3537 19.472V19.792C45.3537 20.1653 45.4871 20.448 45.7538 20.64C46.0204 20.8213 46.3884 20.912 46.8577 20.912ZM56.3715 22.192C55.7528 22.192 55.1982 22.0907 54.7075 21.888C54.2275 21.6853 53.8168 21.3973 53.4755 21.024C53.1448 20.6507 52.8888 20.1973 52.7075 19.664C52.5368 19.1307 52.4515 18.5333 52.4515 17.872C52.4515 17.2107 52.5368 16.6133 52.7075 16.08C52.8888 15.5467 53.1448 15.0933 53.4755 14.72C53.8168 14.3467 54.2275 14.0587 54.7075 13.856C55.1982 13.6533 55.7475 13.552 56.3555 13.552C57.2088 13.552 57.8915 13.7333 58.4035 14.096C58.9262 14.4587 59.3155 14.928 59.5715 15.504L58.2115 16.24C58.0622 15.856 57.8328 15.552 57.5235 15.328C57.2248 15.104 56.8355 14.992 56.3555 14.992C55.6942 14.992 55.1822 15.1947 54.8195 15.6C54.4568 15.9947 54.2755 16.5227 54.2755 17.184V18.56C54.2755 19.2107 54.4568 19.7387 54.8195 20.144C55.1822 20.5493 55.7048 20.752 56.3875 20.752C56.8995 20.752 57.3155 20.6347 57.6355 20.4C57.9662 20.1653 58.2275 19.8453 58.4195 19.44L59.6995 20.224C59.4328 20.8 59.0275 21.2747 58.4835 21.648C57.9395 22.0107 57.2355 22.192 56.3715 22.192ZM61.3093 10.16H63.0533V17.312H63.1333L64.4293 15.984L66.7493 13.744H68.8133L65.4693 16.992L69.1813 22H67.0853L64.2053 17.984L63.0533 19.056V22H61.3093V10.16ZM73.511 22.192C72.8817 22.192 72.3163 22.0907 71.815 21.888C71.3137 21.6853 70.8923 21.3973 70.551 21.024C70.2097 20.6507 69.9483 20.2027 69.767 19.68C69.5857 19.1467 69.495 18.5493 69.495 17.888C69.495 17.2267 69.5857 16.6293 69.767 16.096C69.959 15.5627 70.2203 15.1093 70.551 14.736C70.8923 14.352 71.303 14.0587 71.783 13.856C72.263 13.6533 72.7963 13.552 73.383 13.552C73.959 13.552 74.4817 13.6533 74.951 13.856C75.4203 14.048 75.8203 14.3253 76.151 14.688C76.4817 15.0507 76.7323 15.4827 76.903 15.984C77.0843 16.4853 77.175 17.04 77.175 17.648V18.304H71.255V18.576C71.255 19.2267 71.4577 19.76 71.863 20.176C72.2683 20.5813 72.8283 20.784 73.543 20.784C74.0763 20.784 74.5297 20.672 74.903 20.448C75.287 20.2133 75.5963 19.904 75.831 19.52L76.919 20.48C76.6417 20.96 76.215 21.3653 75.639 21.696C75.0737 22.0267 74.3643 22.192 73.511 22.192ZM73.383 14.88C73.0737 14.88 72.7857 14.9333 72.519 15.04C72.263 15.1467 72.039 15.3013 71.847 15.504C71.6657 15.696 71.5217 15.9253 71.415 16.192C71.3083 16.4587 71.255 16.752 71.255 17.072V17.184H75.399V17.024C75.399 16.3733 75.2123 15.856 74.839 15.472C74.4763 15.0773 73.991 14.88 73.383 14.88ZM78.3848 20.592H80.5768V15.152H78.3848V13.744H82.3208V15.936H82.4168C82.4914 15.648 82.5981 15.3707 82.7368 15.104C82.8754 14.8373 83.0514 14.608 83.2648 14.416C83.4781 14.2133 83.7394 14.0533 84.0488 13.936C84.3581 13.808 84.7208 13.744 85.1368 13.744H86.1288V15.408H84.4968C83.8568 15.408 83.3341 15.6 82.9288 15.984C82.5234 16.3573 82.3208 16.864 82.3208 17.504V20.592H85.3128V22H78.3848V20.592ZM97.3002 13.408H97.1562V22H95.5882V10.832H97.8922L101.172 19.424H101.316V10.832H102.884V22H100.58L97.3002 13.408ZM108.046 22.192C107.417 22.192 106.851 22.0907 106.35 21.888C105.849 21.6853 105.427 21.3973 105.086 21.024C104.745 20.6507 104.483 20.2027 104.302 19.68C104.121 19.1467 104.03 18.5493 104.03 17.888C104.03 17.2267 104.121 16.6293 104.302 16.096C104.494 15.5627 104.755 15.1093 105.086 14.736C105.427 14.352 105.838 14.0587 106.318 13.856C106.798 13.6533 107.331 13.552 107.918 13.552C108.494 13.552 109.017 13.6533 109.486 13.856C109.955 14.048 110.355 14.3253 110.686 14.688C111.017 15.0507 111.267 15.4827 111.438 15.984C111.619 16.4853 111.71 17.04 111.71 17.648V18.304H105.79V18.576C105.79 19.2267 105.993 19.76 106.398 20.176C106.803 20.5813 107.363 20.784 108.078 20.784C108.611 20.784 109.065 20.672 109.438 20.448C109.822 20.2133 110.131 19.904 110.366 19.52L111.454 20.48C111.177 20.96 110.75 21.3653 110.174 21.696C109.609 22.0267 108.899 22.192 108.046 22.192ZM107.918 14.88C107.609 14.88 107.321 14.9333 107.054 15.04C106.798 15.1467 106.574 15.3013 106.382 15.504C106.201 15.696 106.057 15.9253 105.95 16.192C105.843 16.4587 105.79 16.752 105.79 17.072V17.184H109.934V17.024C109.934 16.3733 109.747 15.856 109.374 15.472C109.011 15.0773 108.526 14.88 107.918 14.88ZM112.024 13.744H113.512L114.312 20.688H114.456L115.688 13.744H117.384L118.6 20.688H118.744L119.56 13.744H120.984L119.832 22H117.688L116.584 15.6H116.44L115.32 22H113.176L112.024 13.744ZM125.154 22.192C124.258 22.192 123.484 22.048 122.834 21.76C122.194 21.472 121.676 21.088 121.282 20.608L122.354 19.648C122.716 20.0427 123.122 20.3467 123.57 20.56C124.028 20.7627 124.567 20.864 125.186 20.864C125.751 20.864 126.204 20.768 126.546 20.576C126.898 20.384 127.074 20.0853 127.074 19.68C127.074 19.5093 127.042 19.3653 126.978 19.248C126.914 19.1307 126.823 19.0347 126.706 18.96C126.588 18.8853 126.45 18.8267 126.29 18.784C126.14 18.7413 125.98 18.7093 125.81 18.688L124.498 18.48C124.178 18.4373 123.852 18.368 123.522 18.272C123.191 18.176 122.892 18.0427 122.626 17.872C122.37 17.6907 122.156 17.4613 121.986 17.184C121.826 16.9067 121.746 16.5547 121.746 16.128C121.746 15.2853 122.066 14.6453 122.706 14.208C123.356 13.7707 124.21 13.552 125.266 13.552C126.034 13.552 126.695 13.6693 127.25 13.904C127.815 14.128 128.284 14.4427 128.658 14.848L127.682 15.872C127.468 15.6267 127.164 15.4027 126.77 15.2C126.375 14.9867 125.852 14.88 125.202 14.88C124.039 14.88 123.458 15.248 123.458 15.984C123.458 16.336 123.58 16.5813 123.826 16.72C124.082 16.848 124.38 16.9333 124.722 16.976L126.034 17.184C126.364 17.2373 126.69 17.3067 127.01 17.392C127.34 17.4773 127.634 17.6107 127.89 17.792C128.156 17.9627 128.37 18.1867 128.53 18.464C128.7 18.7413 128.786 19.0933 128.786 19.52C128.786 20.352 128.46 21.008 127.81 21.488C127.17 21.9573 126.284 22.192 125.154 22.192Z" fill="#171717"/>
<path fill-rule="evenodd" clip-rule="evenodd" d="M10.5092 25H19.8736V18.9872H10.5092V25ZM24.4759 25H26C27.1046 25 28 24.1046 28 23V9C28 7.89543 27.1046 7 26 7H24.4759V25ZM19.8736 7H10.5092V15.1839H19.8736V7ZM5.89631 7.00264C4.83993 7.0566 4 7.93021 4 9V23C4 24.0698 4.83993 24.9434 5.89631 24.9974V7.00264Z" fill="#F97316"/>
</svg>
