<svg width="48" height="48" viewBox="0 0 48 48" fill="none" xmlns="http://www.w3.org/2000/svg">
<path d="M23.9995 14C24.5518 14 24.9995 14.4477 24.9995 15V18C24.9995 18.5523 24.5518 19 23.9995 19C23.4472 19 22.9995 18.5523 22.9995 18V15C22.9995 14.4477 23.4472 14 23.9995 14ZM23.9995 29C24.5518 29 24.9995 29.4477 24.9995 30V33C24.9995 33.5523 24.5518 34 23.9995 34C23.4472 34 22.9995 33.5523 22.9995 33V30C22.9995 29.4477 23.4472 29 23.9995 29ZM32.6597 19C32.9359 19.4783 32.772 20.0899 32.2937 20.366L29.6956 21.866C29.2173 22.1422 28.6057 21.9783 28.3296 21.5C28.0535 21.0217 28.2173 20.4101 28.6956 20.134L31.2937 18.634C31.772 18.3578 32.3836 18.5217 32.6597 19ZM19.6693 26.5C19.9455 26.9783 19.7816 27.5899 19.3033 27.866L16.7052 29.366C16.2269 29.6422 15.6154 29.4783 15.3392 29C15.0631 28.5217 15.2269 27.9101 15.7052 27.634L18.3033 26.134C18.7816 25.8578 19.3932 26.0217 19.6693 26.5ZM32.6597 29C32.3836 29.4783 31.772 29.6422 31.2937 29.366L28.6956 27.866C28.2173 27.5899 28.0535 26.9783 28.3296 26.5C28.6057 26.0217 29.2173 25.8578 29.6956 26.134L32.2937 27.634C32.772 27.9101 32.9359 28.5217 32.6597 29ZM19.6693 21.5C19.3932 21.9783 18.7816 22.1422 18.3033 21.866L15.7052 20.366C15.2269 20.0899 15.0631 19.4783 15.3392 19C15.6154 18.5217 16.2269 18.3578 16.7052 18.634L19.3033 20.134C19.7816 20.4101 19.9455 21.0217 19.6693 21.5Z" fill="#F97316"/>
</svg>
