<svg width="40" height="40" viewBox="0 0 40 40" fill="none" xmlns="http://www.w3.org/2000/svg">
<path d="M0 20C0 8.95431 8.95431 0 20 0C31.0457 0 40 8.95431 40 20C40 31.0457 31.0457 40 20 40C8.95431 40 0 31.0457 0 20Z" fill="#FAFAF9"/>
<path d="M11.6667 20.0001H13.3334V27.5001H11.6667V20.0001ZM14.1667 21.6667H15.8334V27.5001H14.1667V21.6667ZM23.3334 16.6667H25V27.5001H23.3334V16.6667ZM25.8334 18.3334H27.5V27.5001H25.8334V18.3334ZM17.5 11.6667H19.1667V27.5001H17.5V11.6667ZM20 13.3334H21.6667V27.5001H20V13.3334Z" fill="#404040"/>
</svg>
